<svg xmlns="http://www.w3.org/2000/svg" width="512" height="512" viewBox="0 0 512 512">
  <rect width="512" height="512" fill="#1E5AA8"/>
  <g transform="translate(256,256) scale(5) translate(-30,-35)" fill="#FFFFFF">
    <circle cx="30" cy="8" r="6"/>
    <path d="M30 16 C30 16 18 22 14 18 C10 14 18 10 22 14 C24 16 27 18 30 18 C33 18 36 16 38 14 C42 10 50 14 46 18 C42 22 30 16 30 16"/>
    <ellipse cx="30" cy="22" rx="10" ry="5"/>
    <path d="M30 30 C22 36 18 48 30 56 C42 48 38 36 30 30" opacity="0.9"/>
    <path d="M30 30 C38 36 42 48 30 56" stroke="#FFFFFF" stroke-width="0.5" fill="none"/>
    <path d="M20 40 C26 38 30 44 30 44 C30 44 26 38 20 40" opacity="0.7"/>
    <path d="M40 40 C34 38 30 44 30 44 C30 44 34 38 40 40" opacity="0.7"/>
  </g>
</svg>
